<svg width="24" height="24" viewBox="0 0 24 24" fill="none" xmlns="http://www.w3.org/2000/svg">
<path d="M16.573 4.55819L19.412 7.39721C20.196 8.18118 20.196 9.45225 19.412 10.2362L16.9081 12.7401C16.6877 12.9605 16.5217 13.2292 16.4231 13.5248L15.4709 16.3815C14.999 17.7973 13.2022 18.2214 12.1469 17.1662L10.0207 15.04L4.53033 20.5303C4.23744 20.8232 3.76256 20.8232 3.46967 20.5303C3.17678 20.2374 3.17678 19.7626 3.46967 19.4697L8.96004 13.9793L6.80401 11.8233C5.74877 10.768 6.17294 8.97122 7.58869 8.4993L10.4454 7.54707C10.7411 7.44852 11.0097 7.28248 11.2301 7.06211L13.734 4.55819C14.518 3.77422 15.789 3.77422 16.573 4.55819Z" fill="#DE595B"/>
</svg>
