<svg width="24" height="24" viewBox="0 0 24 24" fill="currentColor" xmlns="http://www.w3.org/2000/svg">
<path fill-rule="evenodd" clip-rule="evenodd" d="M3.83119 7.38335L18.3367 2.2028C20.4825 1.43647 22.5543 3.50831 21.788 5.65405L16.6074 20.1596C15.7649 22.5186 12.4433 22.5587 11.544 20.2207L9.81543 15.7263C9.54114 15.0132 8.97758 14.4496 8.26444 14.1753L3.77005 12.4467C1.4321 11.5475 1.47221 8.22584 3.83119 7.38335ZM15.6885 9.36285C15.9814 9.06996 15.9814 8.59508 15.6885 8.30219C15.3956 8.0093 14.9208 8.0093 14.6279 8.30219L9.8543 13.0758C9.5614 13.3687 9.5614 13.8435 9.8543 14.1364C10.1472 14.4293 10.6221 14.4293 10.915 14.1364L15.6885 9.36285Z" fill="currentColor"/>
</svg>
